<svg width="200" height="60" viewBox="0 0 200 60" fill="none" xmlns="http://www.w3.org/2000/svg">
  <path d="M23.5 10H45C46.3807 10 47.5 11.1193 47.5 12.5V47.5C47.5 48.8807 46.3807 50 45 50H23.5C22.1193 50 21 48.8807 21 47.5V12.5C21 11.1193 22.1193 10 23.5 10Z" fill="#E22B25"/>
  <path d="M15 15H36.5C37.8807 15 39 16.1193 39 17.5V42.5C39 43.8807 37.8807 45 36.5 45H15C13.6193 45 12.5 43.8807 12.5 42.5V17.5C12.5 16.1193 13.6193 15 15 15Z" fill="white"/>
  <path d="M61.288 20.176H72.584V23.344H64.936V28.496H71.32V31.664H64.936V40H61.288V20.176ZM76.203 22.4C75.499 22.4 74.923 22.208 74.475 21.824C74.027 21.44 73.803 20.944 73.803 20.336C73.803 19.728 74.027 19.232 74.475 18.848C74.923 18.464 75.499 18.272 76.203 18.272C76.907 18.272 77.483 18.464 77.931 18.848C78.379 19.232 78.603 19.728 78.603 20.336C78.603 20.944 78.379 21.44 77.931 21.824C77.483 22.208 76.907 22.4 76.203 22.4ZM77.963 24.416V40H74.411V24.416H77.963ZM90.1576 24.224C91.8216 24.224 93.1256 24.752 94.0696 25.808C95.0136 26.864 95.4856 28.4 95.4856 30.416V40H91.9336V30.96C91.9336 29.76 91.6776 28.856 91.1656 28.248C90.6536 27.64 89.9176 27.336 88.9576 27.336C87.9976 27.336 87.2456 27.64 86.7016 28.248C86.1576 28.856 85.8856 29.76 85.8856 30.96V40H82.3336V24.416H85.8856V26.328C86.3496 25.688 86.9576 25.184 87.7096 24.816C88.4616 24.448 89.2776 24.264 90.1576 24.224ZM106.815 40.192C105.359 40.192 104.047 39.904 102.879 39.328C101.711 38.736 100.783 37.936 100.095 36.928C99.4226 35.904 99.0706 34.752 99.0386 33.472H102.751C102.831 34.32 103.183 35.008 103.807 35.536C104.447 36.064 105.255 36.328 106.231 36.328C107.223 36.328 107.999 36.104 108.559 35.656C109.119 35.192 109.399 34.608 109.399 33.904C109.399 33.216 109.127 32.688 108.583 32.32C108.055 31.936 107.183 31.576 105.967 31.24C104.735 30.92 103.751 30.6 103.015 30.28C102.279 29.96 101.639 29.472 101.095 28.816C100.567 28.16 100.303 27.28 100.303 26.176C100.303 25.248 100.559 24.416 101.071 23.68C101.599 22.944 102.335 22.368 103.279 21.952C104.223 21.536 105.295 21.328 106.495 21.328C108.303 21.328 109.743 21.8 110.815 22.744C111.903 23.688 112.495 24.992 112.591 26.656H109.047C108.999 25.856 108.687 25.216 108.111 24.736C107.551 24.256 106.799 24.016 105.855 24.016C104.959 24.016 104.255 24.224 103.743 24.64C103.247 25.056 102.999 25.608 102.999 26.296C102.999 26.824 103.159 27.272 103.479 27.64C103.815 28.008 104.223 28.304 104.703 28.528C105.199 28.736 105.903 28.984 106.815 29.272C108.015 29.592 108.975 29.92 109.695 30.256C110.431 30.576 111.063 31.056 111.591 31.696C112.119 32.336 112.391 33.2 112.407 34.288C112.407 35.28 112.143 36.16 111.615 36.928C111.087 37.68 110.335 38.272 109.359 38.704C108.399 39.136 107.295 39.352 106.047 39.352C105.559 39.352 105.175 39.336 104.895 39.304C104.631 39.288 104.359 39.248 104.079 39.184C104.095 39.2 104.103 39.216 104.103 39.232C104.119 39.232 104.127 39.24 104.127 39.256C104.143 39.256 104.151 39.264 104.151 39.28C104.167 39.28 104.175 39.288 104.175 39.304C104.735 39.368 105.559 39.384 106.655 39.352C107.751 39.336 108.647 39.304 109.343 39.256C110.039 39.208 110.399 39.184 110.399 39.184L111.615 39.64L110.495 42.808C110.015 42.888 109.367 42.96 108.559 43.024C107.751 43.088 106.911 43.128 106.039 43.144C105.183 43.176 104.431 43.192 103.783 43.192C103.143 43.192 102.727 43.192 102.535 43.192C101.959 43.16 101.431 43.104 100.951 43.024L101.071 39.952C100.687 40.048 100.383 40.112 100.159 40.144C99.8706 40.176 99.6466 40.192 99.4866 40.192H106.815ZM125.066 24.224C126.73 24.224 128.034 24.752 128.978 25.808C129.922 26.864 130.394 28.4 130.394 30.416V40H126.842V30.96C126.842 29.76 126.586 28.856 126.074 28.248C125.562 27.64 124.826 27.336 123.866 27.336C122.906 27.336 122.154 27.64 121.61 28.248C121.066 28.856 120.794 29.76 120.794 30.96V40H117.242V19.6H120.794V26.328C121.258 25.688 121.866 25.184 122.618 24.816C123.37 24.448 124.186 24.264 125.066 24.224ZM147.703 31.904C147.703 32.32 147.679 32.752 147.631 33.2H137.111C137.175 34.32 137.519 35.184 138.143 35.792C138.767 36.4 139.535 36.704 140.447 36.704C141.743 36.704 142.655 36.096 143.183 34.88H147.367C147.015 36.288 146.215 37.448 144.967 38.36C143.719 39.256 142.199 39.704 140.407 39.704C138.951 39.704 137.647 39.4 136.495 38.792C135.359 38.168 134.463 37.304 133.807 36.2C133.167 35.096 132.847 33.832 132.847 32.408C132.847 30.968 133.167 29.696 133.807 28.592C134.447 27.488 135.335 26.632 136.471 26.024C137.607 25.416 138.919 25.112 140.407 25.112C141.847 25.112 143.127 25.408 144.247 26C145.367 26.592 146.239 27.424 146.863 28.496C147.503 29.568 147.823 30.8 147.823 32.192C147.823 32.096 147.823 32.016 147.823 31.952C147.823 31.888 147.823 31.84 147.823 31.808C147.807 31.856 147.791 31.888 147.775 31.904C147.775 31.904 147.759 31.904 147.727 31.904H147.703ZM140.407 28.064C139.575 28.064 138.871 28.344 138.295 28.904C137.719 29.464 137.367 30.224 137.239 31.184H143.551C143.439 30.24 143.095 29.488 142.519 28.928C141.943 28.352 141.239 28.064 140.407 28.064ZM151.439 23.224C150.719 23.224 150.127 23.024 149.663 22.624C149.215 22.208 148.991 21.688 148.991 21.064C148.991 20.44 149.215 19.928 149.663 19.528C150.127 19.112 150.719 18.904 151.439 18.904C152.159 18.904 152.743 19.112 153.191 19.528C153.655 19.928 153.887 20.44 153.887 21.064C153.887 21.688 153.655 22.208 153.191 22.624C152.743 23.024 152.159 23.224 151.439 23.224ZM153.215 25.304V40H149.639V25.304H153.215ZM164.838 25.112C167.006 25.112 168.742 25.848 170.046 27.32C171.35 28.776 172.002 30.768 172.002 33.296C172.002 35.792 171.35 37.784 170.046 39.272C168.742 40.744 167.006 41.48 164.838 41.48C163.43 41.48 162.222 41.112 161.214 40.376C160.206 39.64 159.478 38.664 159.03 37.448V47.12H155.454V25.304H159.03V28.976C159.478 27.76 160.206 26.784 161.214 26.048C162.222 25.312 163.43 24.944 164.838 25.112ZM163.766 37.952C165.014 37.952 166.014 37.52 166.766 36.656C167.518 35.776 167.894 34.656 167.894 33.296C167.894 31.936 167.518 30.824 166.766 29.96C166.014 29.08 165.014 28.64 163.766 28.64C162.534 28.64 161.542 29.08 160.79 29.96C160.038 30.824 159.662 31.936 159.662 33.296C159.662 34.656 160.038 35.776 160.79 36.656C161.542 37.52 162.534 37.952 163.766 37.952Z" fill="#222222"/>
</svg> 